<svg xmlns="http://www.w3.org/2000/svg" fill="none" viewBox="0 0 818 488"><path fill="#FFC4C0" d="M731.383 390.979c9.431-2.926 17.612-8.665 23.886-16.262 6.202-7.494 10.539-16.374 13.942-25.449 1.548-4.117 2.901-8.295 4.162-12.504.626-2.095 1.22-4.21 1.805-6.314.625-2.269 1.117-4.897 2.327-6.919.594-.996 1.527-1.848 2.655-2.095 1.128-.246 2.45.226 2.973 1.273.092-.985.287-1.755.717-2.648.964-2.012 1.743-2.782 3.763-2.711 1.681.052 2.358.442 3.004 1.356-.698-1.848.645-4.107 2.706-4.569 2.061-.462 4.388.965 4.706 2.885.399-1.561 1.906-3.583 3.649-3.624 1.743-.031 3.67 1.53 3.896 3.285.963-4.065 5.802-4.661 8.816-2.176 3.804 3.141 3.168 10.122 2.758 14.28-.441 4.496.082 9.034-.42 13.561-.554 5-1.62 9.938-2.881 14.804-2.02 7.812-4.562 15.471-6.469 23.314-1.671 6.878-1.62 14.629-1.599 21.744.02 6.724.225 13.818 1.312 20.409 1.148 6.95 2.676 13.048.554 20.07-2.215 7.309-7.894 13.941-15.655 16.538-11.051 3.706-23.015-1.119-34.527-3.357-10.467-2.032-21.436-1.878-31.832.462"/><path fill="#FD7B41" d="M738.528 457.174c-.031.113-1.733 1.458-1.753 1.581.031-.205-23.538-.339-27.557-.267l-23.978.431-60.157 1.078c-45.569.822-91.148 1.633-136.716 2.454l-96.858 1.735c-3.66.062-7.319.133-10.99.195l12.989-119.261c30.191 1.827 60.054 3.696 90.379 3.891 17.161.113 34.322.842 51.453 1.94 39.643 2.526 194.525 20.276 211.543 20.789-1.804 31.024 2.532 47.727-8.376 85.434h.021Z"/><path fill="#FFD743" d="M628.343 481.639c2.112.061 4.398-.072 6.008-1.438 1.609-1.365 1.845-4.394-.021-5.359 2.819.349 5.915.647 8.273-.934 2.358-1.581 2.891-5.831.297-6.981 1.918-.031 3.886-.308 5.526-1.293 1.64-.986 2.891-2.803 2.748-4.712-.134-1.91-1.979-3.665-3.855-3.327 2.686-.492 5.085-2.094 5.382-5.04.123-1.181-.154-2.361-.431-3.511-.758-.37-4.746-2.556-5.423-1.889 1.825-1.776 2.85-4.353 2.758-6.909-.041-.996-.256-2.023-.841-2.823-1.271-1.746-3.741-1.941-5.894-1.982-15.316-.287-30.848-5.872-43.693-14.044-15.91-10.122-25.875-22.78-24.358-42.327a860.643 860.643 0 0 1-69.445 14.619c4.152 6.93 4.357 15.574 3.025 23.54-2.358 14.034-13.645 28.458-5.782 42.933 4.931 9.075 16.187 12.791 26.5 13.079 10.313.287 20.606-2.022 30.899-1.345 10.046.667 19.662 4.158 29.494 6.365 12.753 2.874 25.906 2.998 38.843 3.388l-.01-.01Z"/><path fill="#39223E" d="M325.929 244.595c10.661-30.429 22.799-56.812 41.017-83.402 18.217-26.589 50.017-53.301 80.383-64.05 30.355-10.738 63.365-12.308 88.882 7.351 12.548 9.671 43.354 26.835 49.843 136.754 2.83 48.066 3.455 87.847 1.518 141.385-16.475 3.654-32.96 7.319-49.434 10.974-12.968 2.885-26.593 4.147-39.09 7.874-6.735-9.835-10.077-21.723-12.527-33.252-1.159-5.441-3.168-10.471-4.214-16.035-1.24-6.591-8.201-43.467-9.052-50.119-3.813 19.074-14.28 69.624-32.856 101.572-13.861 23.848-22.226 43.066-44.933 58.722-47.814 32.985-109.416 31.137-161.187 8.654-22.964-9.968-55.164-27.615-67.641-50.735"/><path fill="#FD7B41" d="M178.275 184.343s30.529-14.259 39.356-14.3l-1.22-45.428 91.158-16.415s.533 93.154 18.699 135.42c-1.466 8.541-7.248 19.731-7.802 20.768-4.439 8.305-9.062 16.077-14.096 24.033a387.783 387.783 0 0 1-33.574 45.376c-16.188 18.838-34.159 36.054-52.776 52.449-9.195 8.09-18.555 15.984-27.987 23.807-7.063 5.862-13.06 12.843-20.001 18.623-13.481-13.983-27.71-48.261-39.479-88.648-19.16 1.427-59.951 4.137-78.794.37-6.756-26.374 12.23-46.002 26.111-69.584 16.956-28.806 50.746-51.504 73.904-69.983"/><path fill="#39223E" d="M215.488 125.036c-1.712 5.513-1.537 11.786-1.65 17.524-.123 6.745.102 13.511.707 20.225.533 5.923 1.312 11.847 2.42 17.698 1.107 5.852 1.947 12.864 4.982 18.048.759 1.293 2.983.79 2.911-.791-.246-5.482-2.522-11.036-3.67-16.425-1.373-6.447-2.501-12.935-3.25-19.485a188.698 188.698 0 0 1-1.178-17.34c-.144-6.354.809-12.976.051-19.269-.082-.719-1.077-.955-1.323-.175v-.01Z"/><path fill="#FFC4C0" d="M104.371 211.076c11.82 10.02 42.739 24.331 44.205 24.279 2.368-.082 7.873-1.622 11.348-4.342 20.463-15.933 26.357-32.585 31.135-58.096"/><path fill="#FFC4C0" d="M195.139 105.315c-2.563-.749-5.638-.544-8.201.267a13.377 13.377 0 0 0-3.783 1.91c-.297.215-3.106 2.597-2.85 2.884-1.989-2.248-3.844-4.619-5.977-6.744-8.673-8.645-20.462-13.624-32.723-13.541-45.107.308-92.49 32.112-80.29 91.717 6.704 32.728 49.904 40.468 78.106 36.485 5.495-.78 11.021-1.622 16.29-3.357 16.034-5.266 24.502-17.165 32.508-31.075 4.163-7.217 6.633-14.568 7.73-22.976.318-2.443-.964-25.459-1.046-25.418 2.584-1.571 5.055-3.727 7.013-6.047 4.808-5.688 4.274-16.549-1.487-21.559-1.497-1.304-3.403-2.012-5.3-2.566l.01.02Z"/><path fill="#FD7B41" d="M139.595 89.352c-42.216-1.048-84.443 28.94-79.901 81.409 30.796-18.448 89.548-54.882 112.952-68.947-8.498-7.997-20.903-12.154-33.051-12.452v-.01Z"/><path fill="#FFD743" d="M141.666 8.28c-10.846 2.156-27.372 7.74-37.706 11.457-10.825 3.891-17.54 4.784-28.97 1.869-2.041-.524-4.05-1.222-6.121-1.602-2.43-.441-4.91-.42-7.371-.4-6.828.082-13.666-.041-20.462.492-3.27.257-4.173 6.283.348 8.634 6.07 3.162 12.558 3.717 19.345 4.528-2.778-.34-6.479.4-9.267.564-5.28.308-12.118.35-17.387.75-5.546.42-9.955.903-15.019 1.447-4.306.462-11.584.904-13.501 4.189a4.21 4.21 0 0 0-.441 1.037c-.472 1.776.533 3.819 2.224 4.527 1.313.544 2.686.934 4.05 1.335-.39-.113-1.743.123-2.245.123-1.19 0-2.43.256-3.578.523-3.158.74-6.643 3.132-5.249 6.879.78 2.094 2.942 2.628 5.105 3.203 2.163.575 4.378.43 6.602.297-1.435-.072-2.84 1.725-3.28 3.09-.656 2.023.687 4.127 2.48 4.825 3.086 1.191 7.228 1.438 10.775 1.386-.769 1.397-.102 3.234 1.097 4.281 1.2 1.047 2.778 1.55 4.337 1.879 13.583 2.854 16.833 2.926 21.672 3.398 26.295 2.567 60.095-3.706 74.888-4.332 15.357-.657 30.673 1.088 45.979 2.104.646.041 1.291.072 1.937.103-1.579-23.879-2.235-47.573-2.419-71.554-8.396 1.21-16.956 2.792-27.833 4.958l.01.01Z"/><path fill="#FFD743" d="M298.29 74.034c-4.51-12.822-9.052-25.737-15.941-37.46C275.47 24.86 266.018 14.276 253.85 8.25 239.241 1.022 218.184-.682 201.925.22c-13.286.74-23.107 1.653-33.164 3.111.184 23.971.84 47.676 2.419 71.555 14.783.862 29.146.338 43.836-1.787a811.497 811.497 0 0 1 1.846 51.413l87.426-15.523c-.4-9.095-2.04-23.673-5.998-34.956ZM83.006 334.351c.625-3.018 5.034-18.859 5.536-21.908-25.127-4.989-50.356-8.685-75.596-13.674-12.19 37.605-13.788 80.075-1.445 111.5 1.927 4.907 4.316 9.865 8.406 13.192 3.311 2.7 7.494 4.096 11.656 5.03 6.807 1.53 13.922 1.961 20.76.596 4.162-.832 8.18-2.3 12.056-4.035 33.81-15.101 57.153-51.587 69.014-84.788-3.998.442-50.787-4.055-50.408-5.933l.02.02Z"/><path fill="#39223E" d="M90.469 265.815c-1.538-17.257.707-38.262 8.683-53.774 4.449-8.644 15.09-17.432 18.791-26.435 2.266-5.513 5.526-18.171 5.638-28.098 0-.904-1.568-2.546-3.485-1.94-11.687 3.695-11.154 16.292-19.058 23.961-4.244 4.127-14.117 6.159-19.94 5.81-2.214-.133-4.131-.647-5.976-1.868-1.846-1.222-3.947-2.752-3.845-4.959.093-1.991.38-2.864 1.58-4.466 4.94-6.611 12.065-13.705 18.37-19.033.461-.39.953-.79 1.548-.955.615-.174 1.271-.061 1.897.042 4.992.831 15.674 2.145 20.78 1.57 4.09-.462 5.659-1.591 7.063-4.25.472-.893-.154-2.423-1.128-2.7-8.508-2.392-20.657-4.384-28.776-6.314 3.527-3.12 7.33-5.933 9.524-10.214 2.091-4.096 2.378-9.476-.533-13.038l-17.797 15.45c2.932-4.496 5.997-10.009 3.362-14.947-.43-.811-1.23-1.437-2.142-1.53-1.271-.133-1.876.791-2.43 1.622-8.375 12.638-22 21.2-29.76 34.227a281.234 281.234 0 0 0 6.274-26.712c.563-3.1.502-7.207-3.096-8.213-4.634 7.843-8.653 16.128-12.948 24.177-6.018 11.282-4.1 23.796-4.408 36.301-.123 5.307-.257 10.635.123 15.932.297 4.179.922 8.337 1.004 12.525.41 19.577-9.523 38.857-16.208 56.751a336.806 336.806 0 0 0-10.005 31.414c-.216.811-.42 1.632-.636 2.454 25.24 4.989 50.274 9.126 75.401 14.115 2.553-15.501 3.486-31.321 2.102-46.895l.03-.01Z"/><path fill="#020100" d="M140.129 140.415c3.168-5.523 7.842-10.821 13.471-13.89 5.628-3.07 11.758-3.563 18.094-4.476 1.353-.195 1.004-2.372-.318-2.361-14.578.143-25.578 7.432-31.514 20.573-.082.174.164.339.267.154Z"/><path fill="#020100" d="M140.067 140.928c12.835-.965 25.301-7.71 32.098-18.817.574-.935-.841-1.725-1.456-.852-3.793 5.348-7.996 10.153-13.747 13.458-5.29 3.039-11.093 4.261-17.008 5.411-.451.092-.348.841.113.8Z"/><path fill="#020100" d="M155.72 128.835s-.092-.062-.144-.093l.349.35c-.174-.391-.615-.647-1.005-.699-.564-.071-1.025.165-1.445.514-.646.534-.913 1.447-.718 2.258.287 1.201 1.64 1.643 2.717 1.325.789-.226 1.456-.822 1.835-1.54.379-.719.338-1.746-.297-2.331-.236-.215-.482-.431-.759-.595-.584-.349-1.528-.431-2.091 0l-.052.031c-.358.267-.635.533-.82.954-.184.421-.195.842-.102 1.304v.052c.143.646.799 1.334 1.466 1.447.338.062.656.092.994.092l-1.855-1.416.03.123-.071-.503v.123l.061-.493c-.01.072-.031.123-.051.185l.184-.431c-.03.062-.071.113-.112.164l.276-.359a1.124 1.124 0 0 1-.194.185l.358-.278a.97.97 0 0 1-.225.134l.41-.175a2.07 2.07 0 0 1-.441.113l.441-.061h-.133l1.138.472-.041-.041a.849.849 0 0 1 .235.359c.113.257.041.093.031.021l.051.4v-.236l-.051.39s.021-.082.021-.123c.03-.092.02-.082-.031.051-.051.123-.072.154-.031.082.021-.03.051-.071.062-.102.051-.113-.226.277-.072.113.266-.298.348-.586.41-.965 0-.021-.082.39-.031.225 0-.02 0-.03.01-.051l-.676.678c.092-.031.072-.031-.072 0 .379-.031.779-.257.871-.668.093-.41-.071-.78-.41-1.016l-.02.031ZM75.984 179.662c3.168-5.523 7.843-10.82 13.47-13.89 5.629-3.069 11.759-3.562 18.095-4.476 1.353-.195 1.004-2.371-.318-2.361-14.578.144-25.578 7.432-31.514 20.573-.082.175.165.339.267.154Z"/><path fill="#020100" d="M75.923 180.175c12.835-.965 25.301-7.71 32.098-18.818.574-.934-.841-1.724-1.456-.852-3.793 5.349-7.996 10.153-13.748 13.459-5.29 3.039-11.092 4.261-17.007 5.41-.451.093-.349.842.113.801Z"/><path fill="#020100" d="M91.576 168.082s-.092-.062-.143-.092l.349.349c-.175-.391-.615-.647-1.005-.698-.564-.072-1.025.164-1.446.513-.645.534-.912 1.447-.717 2.258.287 1.201 1.64 1.643 2.716 1.325.79-.226 1.456-.822 1.835-1.54.38-.719.339-1.745-.297-2.331-.236-.215-.482-.431-.758-.595-.585-.349-1.528-.431-2.092 0l-.051.031c-.359.267-.636.534-.82.954-.185.421-.195.842-.103 1.304v.052c.144.646.8 1.334 1.466 1.447.339.062.656.093.995.093l-1.856-1.417.031.123-.072-.503v.123l.062-.493c-.01.072-.031.124-.052.185l.185-.431a.905.905 0 0 1-.113.164l.277-.359a1.118 1.118 0 0 1-.195.185l.359-.277a1.021 1.021 0 0 1-.225.133l.41-.175a2.065 2.065 0 0 1-.441.113l.44-.061h-.133l1.138.472-.04-.041a.851.851 0 0 1 .235.359c.113.257.041.093.03.021l.052.4v-.236l-.051.39s.02-.082.02-.123c.031-.092.02-.082-.03.051-.052.124-.072.154-.031.082.02-.03.051-.071.061-.102.052-.113-.225.277-.072.113.267-.298.35-.585.41-.965 0-.021-.081.39-.03.226 0-.021 0-.031.01-.052l-.677.678c.093-.031.072-.031-.071 0 .379-.031.779-.257.871-.668.092-.41-.072-.78-.41-1.016l-.02.031Z"/><path fill="#BB98F2" d="M150.923 180.319c2.543-1.304 7.023-1.355 9.852-1.098-.225 4.743-.635 9.886-3.762 13.459-1.118 1.273-2.532 2.268-4.039 3.028-3.753 1.899-8.386 2.587-12.436 1.314-.974-.308-2.081-.729-2.88-1.386-1.354-1.109-1.22-1.242-.646-2.823.81-2.259 2.296-4.712 4.008-6.427 1.794-1.786 4.654-2.854 6.889-1.652-.01-1.859 1.436-3.614 3.035-4.425l-.021.01Z"/><path fill="#020100" d="M136.448 195.328c4.326 1.078 9.924-1.478 13.645-3.624 4.583-2.638 8.232-6.622 10.918-11.128.789-1.335-1.302-2.557-2.071-1.212-2.624 4.548-6.11 8.008-10.549 10.8-3.854 2.423-8.078 2.649-12.025 4.507-.287.133-.205.585.082.657Z"/><path fill="#FD7B41" d="M120.609 143.628c.79 5.39 4.398 10.646 7.012 15.327 2.994 5.38 6.316 10.554 9.565 15.79 1.528 2.474 5.321.267 3.896-2.279a382.268 382.268 0 0 0-10.118-17.114c-2.748-4.394-5.085-9.383-9.299-12.535-.574-.431-1.138.277-1.056.811Z"/><path fill="#D62C05" d="M196.46 162.24c-8.621 0-15.644-7.032-15.644-15.666 0-8.633 7.023-15.666 15.644-15.666 8.622 0 15.644 7.033 15.644 15.666 0 8.634-7.022 15.666-15.644 15.666Zm0-26.989c-6.233 0-11.307 5.082-11.307 11.323 0 6.242 5.074 11.324 11.307 11.324 6.233 0 11.308-5.082 11.308-11.324 0-6.241-5.075-11.323-11.308-11.323Z"/><path fill="#FD7B41" d="M142.978 172.743c.984-1.047 1.917-.883 3.219-1.109 1.517-.267 3.649-1.14 3.198-2.895-.154-.626-.81-1.14-1.456-1.109-.851.031-1.302.493-1.948.934-1.158.811-2.327 1.499-3.198 2.649-.246.318-.677.575-.615 1.057.041.38.4.904.8.473ZM136.264 176.747v-.113c.02-.298-.226-.637-.523-.698-.994-.206-2.696.307-3.557.759-.995.524-1.948 1.109-2.204 2.31-.154.749.328 1.335 1.066 1.396 1.127.093 2.03-1.088 2.87-1.724.431-.319.831-.627 1.22-.996.338-.308.472-.288.861-.462.175-.082.267-.298.277-.483l-.01.011ZM134.337 136.822c5.597-4.332 10.487-9.281 16.535-13.079 6.582-4.137 13.768-7.269 21.324-9.116 3.188-.781 1.835-5.698-1.353-4.918-8.273 2.012-15.952 5.708-23.036 10.41-5.792 3.85-12.507 8.623-15.418 15.183-.595 1.335.83 2.392 1.958 1.52h-.01ZM9.993 47.035c7.833.42 15.819-.709 23.63-1.14 7.043-.39 13.922-.113 20.945.134 1.24.04 1.189-1.776 0-1.9-7.146-.728-14.589-.215-21.734.237-7.597.482-15.429.749-22.923 2.053-.359.061-.256.595.082.616ZM9.277 58.317c15.818.349 31.606-1.088 47.455-.688.984.02.964-1.447 0-1.52-15.634-1.19-32.006-.39-47.506 1.849-.205.03-.144.349.051.359ZM21.731 68.019c6.1.564 12.271.43 18.392.728 5.74.278 11.635 1.047 17.376.678.769-.051 1.066-1.324.195-1.437-5.495-.76-11.174-.626-16.72-.78-6.377-.185-12.897-.555-19.243.143-.43.052-.44.637 0 .678v-.01Z"/><path fill="#BB98F2" d="M39.938 20.436c.461 4.63 8.622 7.935 9.872 1.077a6.941 6.941 0 0 0 .093-1.837c-3.014.04-6.028.144-9.032.42-.338.032-.656.155-.933.34Z"/><path fill="#FD7B41" d="M620.101 468.785c1.989 1.468 4.101 2.639 6.428 3.46 1.271.441 2.573.647 3.854 1.006 2.522.719 3.578 1.458 4.234 4.055.195.76 1.487.852 1.62 0 .379-2.443-1.179-4.383-3.516-5.164-1.887-.626-3.957-.616-5.875-1.139-2.265-.626-4.408-1.622-6.458-2.762-.359-.195-.636.308-.318.544h.031ZM625.442 462.041c2.512 1.96 5.218 2.771 8.376 3.192 4.213.565 8.468-.185 10.149 4.62.164.483 1.015.616 1.107 0 .431-2.7-1.056-4.445-3.639-5.195-5.239-1.54-10.416-.544-15.47-3.285-.41-.226-.922.37-.523.678v-.01ZM630.158 454.813c2.388 1.14 4.849 1.869 7.514 2.023 4.491.256 8.202-1.489 11.974 2.002.451.42 1.046-.103.81-.627-1.087-2.464-3.773-2.895-6.243-2.772-4.962.237-9.042.729-13.86-1.077-.267-.103-.451.338-.195.462v-.011ZM632.085 445.943c6.059 2.711 12.825-.03 18.904 3.337.953.534 1.753-.862.851-1.458-5.485-3.614-13.491-2.145-19.704-2.063-.092 0-.143.133-.051.174v.01ZM802.036 331.928c4.45-4.743 3.004-12.524 6.367-17.945.236-.38-.287-.749-.605-.462-4.931 4.445-4.029 12.463-5.987 18.284-.041.123.133.226.225.134v-.011ZM795.271 330.45c1.517-1.92 1.856-4.188 2.204-6.56.441-2.957 1.148-5.605 2.471-8.315.205-.432-.298-.832-.656-.514-1.62 1.417-2.215 3.409-2.471 5.503-.42 3.388-.492 6.56-1.661 9.804-.02.062.072.123.123.072l-.01.01ZM791.898 315.041c-1.569 1.611-2.112 3.305-2.358 5.543-.379 3.419-.83 6.304-2.132 9.507-.154.369.44.708.686.4a13.092 13.092 0 0 0 2.625-6.047c.492-3.141-.062-6.354 1.24-9.362.011-.031-.03-.072-.061-.041ZM785.552 317.525c-1.702 1.345-2.502 3.572-3.127 5.585-.82 2.607-1.661 5.092-2.676 7.638-.174.441.42.636.707.41 1.774-1.386 2.574-3.275 3.025-5.441.605-2.885.933-5.256 2.655-7.74.266-.38-.277-.688-.584-.452Z"/><path fill="#BB98F2" d="m418.829 184.972-6.9-8.526-50.306 40.823 6.9 8.526 50.306-40.823Z"/><path fill="#FD7B41" d="m420.356 197.809-6.9-8.527-50.306 40.823 6.9 8.527 50.306-40.823Z"/><path fill="#BB98F2" d="m485.431 108.256-5.833 9.29 54.814 34.514 5.834-9.291-54.815-34.513Z"/><path fill="#FD7B41" d="m497.07 102.663-5.833 9.29 54.814 34.514 5.834-9.291-54.815-34.513Z"/><path fill="#BB98F2" d="m514.466 190.01-39.981 6.879a635.016 635.016 0 0 0-1.65 11.415l43.487-7.484-1.856-10.82v.01Z"/><path fill="#FD7B41" d="m519.41 178.061-43.068 7.412a631.763 631.763 0 0 0-1.855 11.457l46.789-8.049-1.856-10.82h-.01Z"/><path fill="#BB98F2" d="m522.685 337.591 10.672-2.491-14.697-63.148-10.673 2.491 14.698 63.148Z"/><path fill="#FD7B41" d="m510.479 333.352 10.673-2.491-14.698-63.148-10.673 2.491 14.698 63.148Z"/><path fill="#BB98F2" d="m430.608 303.941 10.896 1.176 6.937-64.467-10.896-1.176-6.937 64.467Z"/><path fill="#FD7B41" d="m420.484 295.916 10.896 1.175 6.936-64.467-10.895-1.176-6.937 64.468Z"/><path fill="#BB98F2" d="m388.583 327.801 6.632-8.737-51.548-39.238-6.632 8.737 51.548 39.238Z"/><path fill="#FD7B41" d="m376.482 332.338 6.632-8.736-51.547-39.239-6.632 8.737 51.547 39.238Z"/><path fill="#BB98F2" d="m325.986 345.19-8.366-7.089-41.827 49.496 8.365 7.089 41.828-49.496Z"/><path fill="#FD7B41" d="m329.875 357.533-8.365-7.09-41.828 49.496 8.366 7.089 41.827-49.495Z"/><path fill="#FFD743" d="M477.326 158.144c-.287 17.545-4.839 34.669-7.012 52.008-1.938 15.42-2.614 31.004-2.409 46.546.441 31.99 4.705 63.886 12.374 94.941 4.039 16.354 8.713 32.934 16.084 48.117.892 1.838 3.906.554 3.291-1.386-4.49-14.095-9.411-28.006-13.245-42.317a437.196 437.196 0 0 1-9.78-46.874c-4.716-30.87-6.879-62.367-3.957-93.524 1.794-19.218 6.602-38.087 5.279-57.501-.03-.4-.615-.41-.625 0v-.01Z"/><path fill="#39223E" d="M144.003 289.714c-1.835 4.035-2.132 8.254-2.789 12.597a269.726 269.726 0 0 1-2.593 14.27c-1.969 9.475-5.823 18.602-7.597 28.057-.4 2.115 2.573 3.726 3.691 1.56 4.398-8.531 6.407-19.033 8.293-28.396 1.723-8.531 4.409-19.382 2.225-27.923-.133-.524-.984-.699-1.23-.165Z"/><path fill="#FD7B41" d="M73.022 354.647c14.793-18.92 22.502-44.873 18.924-68.824-.102-.657-1.076-.451-1.107.154-1.22 24.423-6.612 46.67-18.34 68.26-.174.318.287.718.533.41h-.01ZM236.668 24.203c5.485 3.706 15.172 3.439 21.016.534 3.639-1.807 6.653-7.885 1.753-10.297-6.069-2.988-9.698 5.153-10.19 9.742-.831 7.67 4.962 12.094 11.113 15.297.82.42 1.455-.709.717-1.222-3.075-2.145-6.417-4.404-8.263-7.771-1.24-2.259-1.476-4.59-1.035-7.084.461-2.29 3.547-9.311 7.074-6.272 1.773 1.519.205 4.414-1.425 5.543-2.451 1.684-6.5 2.023-9.37 2.238-3.896.298-7.32-.482-11.031-1.56-.533-.154-.79.565-.359.862v-.01Z"/><mask id="a" width="424" height="399" x="165" y="89" maskUnits="userSpaceOnUse" style="mask-type:luminance"><path fill="#fff" d="M325.93 244.595c10.662-30.429 22.799-56.812 41.017-83.402 18.217-26.589 50.018-53.301 80.383-64.05 30.355-10.738 63.365-12.308 88.882 7.351 12.548 9.671 43.354 26.835 49.843 136.754 2.83 48.066 3.455 87.847 1.518 141.385-16.475 3.654-32.96 7.319-49.434 10.974-12.968 2.885-26.593 4.147-39.09 7.874-6.735-9.835-10.077-21.723-12.527-33.252-1.158-5.441-3.168-10.471-4.213-16.035-1.241-6.591-8.202-43.467-9.053-50.119-3.813 19.074-14.28 69.624-32.856 101.572-13.86 23.848-22.226 43.066-44.933 58.722-47.814 32.985-109.416 31.137-161.187 8.654-22.964-9.968-56.282-29.289-68.758-52.418"/></mask><g mask="url(#a)"><path fill="#BB98F2" d="m448.339 151.475 7.378-8.114-47.876-43.655-7.378 8.114 47.876 43.655Z"/><path fill="#FD7B41" d="m435.9 154.923 7.379-8.114-47.876-43.656-7.378 8.115 47.875 43.655Z"/><path fill="#BB98F2" d="m542.013 251.311 7.426 8.07 47.616-43.939-7.426-8.07-47.616 43.939Z"/><path fill="#FD7B41" d="m539.68 238.605 7.427 8.07 47.616-43.939-7.427-8.07-47.616 43.939Z"/><path fill="#BB98F2" d="m563.036 367.533 9.01 6.248 36.86-53.308-9.01-6.248-36.86 53.308Z"/><path fill="#FD7B41" d="m557.986 355.636 9.01 6.247 36.86-53.308-9.009-6.247-36.861 53.308Z"/><path fill="#BB98F2" d="m466.846 359.876-3.885-10.261-60.545 22.982 3.884 10.262 60.546-22.983Z"/><path fill="#FD7B41" d="m464.269 372.555-3.885-10.262-60.545 22.983 3.884 10.262 60.546-22.983Z"/><path fill="#BB98F2" d="m347.598 484.325 10.689 2.421 14.279-63.245-10.689-2.42-14.279 63.244Z"/><path fill="#FD7B41" d="m338.462 475.184 10.689 2.42 14.279-63.244-10.689-2.42-14.279 63.244Z"/><path fill="#BB98F2" d="m207.935 470.657 1.61 10.856 64.047-9.528-1.611-10.856-64.046 9.528Z"/><path fill="#FD7B41" d="m213.13 458.831 1.611 10.855 64.046-9.528-1.61-10.856-64.047 9.529Z"/><path fill="#BB98F2" d="m179.038 365.858-6.95 8.485 50.063 41.122 6.95-8.486-50.063-41.121Z"/><path fill="#FD7B41" d="m191.297 361.771-6.95 8.485 50.063 41.122 6.95-8.486-50.063-41.121Z"/></g></svg>