<svg xmlns="http://www.w3.org/2000/svg" width="100" height="30" fill="none" viewBox="0 0 162 35"><path d="M81.567 4.68c-.841.244-1.999 1.378-2.195 2.149-.301 1.188.099 2.24 1.14 2.994 1.704 1.235 3.969 1.014 5.452-.531.599-.623.811-1.414.633-2.361-.327-1.745-2.864-2.88-5.03-2.251M6 5.184C3.686 5.535 1.744 6.865.958 8.637.46 9.76.374 11.576.767 12.668c.625 1.739 2.16 3.047 5.964 5.08C9.132 19.03 9.7 19.53 9.634 20.3c-.036.411-.19.687-.522.933-.406.302-.691.348-2.083.335-.994-.009-1.867-.112-2.277-.266-.622-.235-.661-.289-.613-.846a2.433 2.433 0 0 0-.222-1.122c-.515-.997-2.225-1.321-3.267-.62-.555.373-.568.409-.616 1.692l-.049 1.311.933.903c1.117 1.082 3.039 2.054 5.079 2.567 1.168.294 1.72.341 3.167.266 6.379-.327 9.687-4.677 6.726-8.845-.672-.947-1.896-1.866-4.257-3.199-3.062-1.727-4.09-2.426-4.39-2.984-.357-.663-.278-1.051.304-1.486.542-.404 2.42-.577 3.161-.291.402.155.459.266.459.892 0 1.374 1.013 2.46 2.294 2.46 2.431 0 3.522-2.956 1.724-4.668-.783-.746-2.486-1.585-3.862-1.904C9.897 5.097 7.342 4.98 6 5.184m78.659.312c1.417.723 1.803 2.3.833 3.404-1.737 1.978-5.574 1.052-5.575-1.346 0-.841.433-1.486 1.349-2.01.866-.495 2.472-.518 3.393-.048m-74.102.415c1.533.274 3.474 1.146 4.23 1.902 1.347 1.347.582 3.52-1.239 3.52-.601 0-.835-.094-1.243-.502-.461-.461-.497-.581-.445-1.457l.057-.955-.667-.234c-1.017-.356-3.033-.331-3.799.047-1.3.643-1.435 2.03-.301 3.1.34.321 1.477 1.066 2.526 1.653 4.264 2.39 5.604 3.46 6.327 5.054.452.995.427 2.329-.062 3.379-1.506 3.235-7.545 4.458-12.011 2.434C.936 22.494-.434 20.585.742 19.409c.323-.322.582-.409 1.221-.409 1.318 0 1.772.72 1.355 2.152-.047.161.271.354 1.015.616 2.216.779 4.496.67 5.494-.262.412-.385.506-.607.506-1.187 0-.633-.089-.8-.791-1.476-.436-.42-1.43-1.092-2.209-1.493-3.663-1.889-5.026-2.939-5.759-4.438-.85-1.738-.358-4.356 1.051-5.593 1.678-1.473 4.627-1.997 7.932-1.408m20.192.4c-.841.382-1.678 1.323-1.906 2.143-.11.399-.175 3.571-.175 8.662l-.001 8.032.37.259c.316.222 1.136.26 5.589.26 5.638 0 5.902-.036 6.702-.904.336-.364.424-.658.477-1.602l.066-1.156.731.813c1.577 1.755 3.423 2.504 6.481 2.631 2.333.097 3.877-.165 5.525-.936 1.874-.877 3.32-2.711 3.714-4.709l.141-.721.019.678c.051 1.888.7 3.725 1.627 4.605 1.834 1.74 5.676 1.249 8.299-1.06.4-.352.763-.639.808-.639.045 0 .124.168.177.375.152.594 1.077 1.602 1.831 1.995 1.574.819 4.564.317 6.611-1.11l1.082-.754.051.87c.08 1.334.271 1.457 2.266 1.456 2.073-.001 2.768-.185 3.622-.956.746-.674 1.08-1.235 1.289-2.163l.141-.63.2.5c.486 1.213 2.049 2.324 3.97 2.822 3.784.981 7.539.065 9.043-2.206.463-.699.501-.869.501-2.248v-1.491l-1.045-1.022c-.752-.735-1.507-1.254-2.697-1.85-2.507-1.256-3.112-1.899-2.136-2.27.347-.132.471-.121.526.046.04.121.309.457.599.748 1.61 1.615 4.627.232 4.064-1.862-.074-.275-.398-.732-.721-1.016-.905-.797-2.035-1.095-4.507-1.187-3.146-.118-4.974.368-6.2 1.646a3.925 3.925 0 0 0-1.095 2.727c-.003 1.001.327 1.693 1.301 2.735l.719.769h-.645c-.679 0-1.397.499-1.671 1.159-.078.19-.143-1.425-.151-3.75-.009-2.935-.072-4.201-.223-4.5-.203-.401-.278-.418-2.039-.465-2.264-.059-2.943.162-3.96 1.293C79.137 13.421 79 13.998 79 17.05v2.594l-.708.573c-1.244 1.005-1.762 1.125-2.063.478-.071-.153-.17-2.303-.221-4.778-.05-2.475-.152-4.594-.226-4.709-.095-.146-.693-.208-2.009-.208-1.675 0-1.965.045-2.727.425a4.03 4.03 0 0 0-1.984 2.227c-.138.386-.217 1.526-.221 3.221l-.008 2.623-.625.578c-.343.318-.874.712-1.179.877-.549.296-.557.295-.875-.094-.298-.366-.321-.699-.321-4.755 0-3.677-.04-4.419-.259-4.732-.242-.345-.384-.37-2.125-.366-2.186.004-2.857.232-3.815 1.293-.751.834-1.129 2.021-1.148 3.608l-.014 1.178-.24-.991c-.6-2.484-2.649-4.35-5.522-5.029-1.492-.353-4.772-.345-6.127.015-2.394.636-4.044 1.925-4.96 3.876-.464.986-.538 1.341-.59 2.796-.046 1.298.011 1.888.257 2.667l.316 1h-5.773v-7.338c0-6.372-.034-7.387-.259-7.709-.243-.347-.381-.37-2.208-.366-1.524.003-2.095.07-2.617.307m4.378 7.981L35.17 22h5.997v1.013c0 .897-.056 1.068-.488 1.5l-.487.487H29.333l.003-8.125c.003-8.1.004-8.127.375-8.776.727-1.272 1.516-1.586 3.872-1.543l1.5.027.044 7.709M19.879 7.328c-1.407.335-2.699 1.907-2.709 3.297-.003.504-.043.542-.568.542-.936 0-1.288.427-1.389 1.687-.122 1.515.063 1.813 1.126 1.813h.828v5.154c0 4.464.035 5.19.262 5.417.204.205.642.262 2.005.262 2.001 0 2.662-.204 3.59-1.108l.608-.593.226.469c.504 1.049 1.933 1.521 2.973.983 1.507-.779 1.278-2.596-.385-3.055-.657-.181-1.631-.026-2.062.329-.248.205-.262.152-.162-.59.061-.448.111-2.267.111-4.042v-3.226l1.125-.006c.658-.003 1.244-.095 1.41-.222.406-.308.632-1 .632-1.936 0-1.33-.008-1.336-1.669-1.336h-1.467l-.057-1.764c-.072-2.225-.09-2.243-2.297-2.219-.876.009-1.835.074-2.131.144m3.751 2.464.048 1.875H26.833v.99c0 1.299-.273 1.51-1.953 1.51h-1.213v3.658c0 2.031-.082 4.039-.184 4.513-.208.974-.863 1.821-1.719 2.228-.641.304-2.834.536-3.495.37l-.436-.109V14.183l-.958-.05-.958-.05-.044-.916c-.023-.505.025-1.021.108-1.148.082-.127.533-.268 1.001-.313l.851-.082v-.82c0-.899.258-1.525.859-2.085.825-.767 1.288-.892 3.141-.846l1.75.044.047 1.875m29.489 2.01c2.599.818 4.073 2.383 4.555 4.836.621 3.156-.743 6.093-3.416 7.352-1.367.644-2.448.844-4.558.841-3.893-.006-6.263-1.214-7.512-3.831-.398-.832-.438-1.102-.438-2.917 0-1.785.044-2.089.409-2.833.879-1.791 2.672-3.157 4.674-3.562a57.66 57.66 0 0 0 1.25-.262c.787-.182 4.035.06 5.036.376m44.244.067c1.536.706 1.883 1.949.74 2.646-1.061.647-2.43.263-2.774-.777-.19-.577-.223-.597-.805-.495-.76.135-1.425.602-1.492 1.049-.091.61.88 1.456 2.843 2.477 3.066 1.594 4.054 2.876 3.601 4.672-.278 1.105-1.55 2.383-2.893 2.906-1.431.558-4.621.575-6.343.033-1.797-.566-3.023-1.606-3.345-2.839-.267-1.023.495-2.374 1.338-2.374.608 0 .664.254.167.751-.368.368-.424.54-.342 1.053.118.741.828 1.436 1.725 1.684 1.502.418 3.402.076 3.633-.652.283-.892-.18-1.399-2.666-2.923-2.68-1.641-3.666-3.078-3.251-4.731.567-2.253 2.281-3.045 6.418-2.965 2.286.045 2.581.086 3.446.485m-32.196 4.106c0 4.697.078 5.218.849 5.617.619.32 1.194.094 2.515-.985l.948-.775.052-3.068.052-3.067.516-.64c.987-1.225 1.391-1.39 3.41-1.39h1.792l.058 4.466c.051 3.962.092 4.517.358 4.924.68 1.036 1.326.945 3.044-.429l.89-.711.011-2.834c.014-3.216.157-3.763 1.232-4.707.779-.684 1.002-.734 3.023-.675l1.666.049.05 4.667c.028 2.566.003 5.062-.054 5.545-.123 1.043-.845 2.095-1.762 2.568-.65.336-2.98.591-3.713.407-.434-.109-.437-.123-.437-1.701v-1.59l-1.125.955c-1.33 1.129-2.805 1.86-4.248 2.106-2.424.414-3.891-.389-4.493-2.457-.107-.367-.216-.696-.243-.732-.027-.035-.523.377-1.102.917-1.225 1.143-2.338 1.785-3.712 2.143-2.602.678-4.238-.007-5.189-2.17-.236-.537-.302-1.303-.355-4.164-.073-3.93.021-4.541.84-5.462.856-.962 1.307-1.113 3.335-1.114l1.792-.001v4.308m-16.084-3.157c-.183.078-.471.297-.641.485-.632.703-.76 1.49-.768 4.708-.01 4.184.264 5.089 1.662 5.49.822.236 1.557-.177 2.032-1.141.362-.735.382-.964.382-4.277 0-3.802-.122-4.44-.953-4.984-.512-.335-1.289-.463-1.714-.281m1.408.84c.581.58.709 1.554.647 4.915-.061 3.348-.134 3.699-.876 4.185-.649.425-1.244.159-1.639-.734-.301-.681-.337-1.104-.332-3.935.006-3.195.102-3.844.663-4.464.351-.387 1.134-.371 1.537.033m41.954 7.335c.819.712.349 1.195-1.163 1.195-1.697 0-2.615-.536-2.615-1.525 0-.245.157-.418.5-.547.596-.226.632-.535.125-1.081-.384-.413 2.449 1.347 3.153 1.958m-65.892 1.865c.479.252.608.465.611 1.008.007 1.123-2.101 1.353-2.669.291-.504-.942.969-1.872 2.058-1.299" fill-rule="evenodd" fill="#000"/></svg>